<svg xmlns="http://www.w3.org/2000/svg" fill="none" viewBox="0 0 24 24" id="Fastapi--Streamline-Svg-Logos" height="24" width="24">
  <desc>
    Fastapi Streamline Icon: https://streamlinehq.com
  </desc>
  <path fill="#009688" d="M2.4203475 9.82965C1.2220875 9.82965 0.25 10.80175 0.25 12s0.9720875 2.17035 2.1703475 2.17035c1.1982525 0 2.1703275 -0.9721 2.1703275 -2.17035s-0.972075 -2.17035 -2.1703275 -2.17035ZM2.30726 13.73975v-1.36135H1.55047l1.087355 -2.11815v1.36135h0.7285L2.30726 13.73975Z" opacity=".98" stroke-width="0.25"></path>
  <path fill="#009688" d="M6.323975 13.86055V10.112475h2.26075v0.4489h-1.736125v1.130375H8.39v0.4435h-1.5414v1.7253h-0.524625Zm3.549725 -0.362375 0.0772 -0.000275c0.08755 -0.000625 0.166375 -0.002325 0.2365 -0.005125 0.09375 -0.007225 0.171275 -0.018025 0.23255 -0.03245V12.622c-0.03605 -0.018025 -0.09555 -0.03245 -0.178475 -0.043275 -0.079325 -0.0144 -0.176675 -0.021625 -0.29205 -0.021625 -0.075725 0 -0.15685 0.0054 -0.243375 0.016225 -0.082925 0.010825 -0.16045 0.03425 -0.232575 0.070325 -0.0685 0.03245 -0.1262 0.079325 -0.173075 0.1406 -0.046875 0.0577 -0.0703 0.135225 -0.0703 0.232575 0 0.180275 0.0577 0.306475 0.173075 0.3786 0.115375 0.0685 0.272225 0.10275 0.470525 0.10275Zm-0.043275 -2.52035c0.1893 0 0.350075 0.023775 0.48235 0.0713l0.02605 0.009825c0.13125 0.047125 0.237375 0.11465 0.318375 0.2026l0.01695 0.01915c0.08655 0.09375 0.14785 0.207325 0.1839 0.34075 0.03605 0.1298 0.054075 0.274025 0.054075 0.432675v1.75775l-0.09735 0.016875c-0.02595 0.0046 -0.0548 0.0098 -0.086525 0.015575l-0.058825 0.0081c-0.06085 0.008125 -0.127775 0.016225 -0.2008 0.02435 -0.09735 0.0108 -0.2037 0.019825 -0.3191 0.027025 -0.111775 0.010825 -0.22355 0.016225 -0.335325 0.016225 -0.158625 0 -0.304675 -0.016225 -0.438075 -0.048675 -0.1334 -0.03245 -0.2488 -0.082925 -0.34615 -0.151425 -0.09735 -0.072125 -0.17305 -0.16585 -0.22715 -0.28125 -0.054075 -0.115375 -0.081125 -0.2542 -0.081125 -0.41645 0 -0.155025 0.03065 -0.28845 0.09195 -0.400225 0.0649 -0.111775 0.151425 -0.2019 0.2596 -0.270425 0.108175 -0.0685 0.234375 -0.118975 0.3786 -0.151425 0.144225 -0.03245 0.29565 -0.048675 0.4543 -0.048675 0.050475 0 0.102775 0.0036 0.15685 0.0108 0.054075 0.003625 0.104575 0.010825 0.15145 0.02165l0.048075 0.0072c0.022825 0.0036 0.04385 0.007225 0.0631 0.010825l0.07355 0.015c0.00845 0.001875 0.015375 0.003475 0.020775 0.004825v-0.140625c0 -0.082925 -0.009 -0.16405 -0.027025 -0.243375 -0.018025 -0.082925 -0.050475 -0.15505 -0.09735 -0.216325 -0.046875 -0.064925 -0.111775 -0.1154 -0.194725 -0.15145 -0.079325 -0.03965 -0.183875 -0.0595 -0.313675 -0.0595 -0.15205 0 -0.287425 0.0106 -0.406125 0.031825l-0.082625 0.015425c-0.097575 0.018975 -0.172625 0.0393 -0.225175 0.060925l-0.0595 -0.41645c0.0649 -0.02885 0.173075 -0.0559 0.324525 -0.081125 0.136275 -0.025975 0.2828 -0.04025 0.43955 -0.042825l0.0526 -0.00045Zm2.56625 2.52035c0.205525 0 0.35695 -0.02705 0.4543 -0.081125 0.100975 -0.054075 0.15145 -0.140625 0.15145 -0.2596 0 -0.1226 -0.048675 -0.21995 -0.146025 -0.292075 -0.09735 -0.0721 -0.2578 -0.153225 -0.48135 -0.243375 -0.108175 -0.043275 -0.21275 -0.086525 -0.3137 -0.1298 -0.09735 -0.046875 -0.1821 -0.10095 -0.2542 -0.16225 -0.072125 -0.0613 -0.1298 -0.135225 -0.173075 -0.22175 -0.043275 -0.086525 -0.0649 -0.1929 -0.0649 -0.3191 0 -0.2488 0.09195 -0.4453 0.275825 -0.589525 0.1839 -0.147825 0.4345 -0.22175 0.751775 -0.22175 0.079325 0 0.15865 0.005425 0.237975 0.016225 0.079325 0.007225 0.15325 0.018025 0.22175 0.03245 0.058725 0.009275 0.110825 0.019875 0.1563 0.0318l0.060375 0.01655c0.03585 0.010125 0.064575 0.01925 0.0862 0.027375l-0.09195 0.432675c-0.054075 -0.02885 -0.1388 -0.0577 -0.2542 -0.086525 -0.115375 -0.03245 -0.254175 -0.048675 -0.41645 -0.048675 -0.1406 0 -0.2632 0.028825 -0.367775 0.086525 -0.10455 0.054075 -0.156825 0.140625 -0.156825 0.2596 0 0.0613 0.0108 0.1154 0.03245 0.16225 0.025225 0.046875 0.061275 0.09015 0.10815 0.129825 0.0505 0.03605 0.111775 0.0703 0.1839 0.10275 0.0721 0.03245 0.15865 0.0667 0.2596 0.10275 0.1334 0.0505 0.2524 0.100975 0.35695 0.15145 0.104575 0.046875 0.192925 0.10275 0.265025 0.16765 0.075725 0.064925 0.1334 0.144225 0.173075 0.237975 0.03965 0.09015 0.0595 0.201925 0.0595 0.335325 0 0.259625 -0.09735 0.456125 -0.292075 0.589525 -0.1911 0.133425 -0.465125 0.200125 -0.822075 0.200125 -0.23635 0 -0.4239 -0.019525 -0.562625 -0.058575l-0.113275 -0.032825c-0.0913 -0.0271 -0.156275 -0.0489 -0.194875 -0.06545l0.09195 -0.432675 0.0691 0.025225c0.0537 0.01925 0.1226 0.043275 0.206725 0.072125 0.118775 0.040725 0.2743 0.062275 0.466525 0.064675l0.036475 0.000225Zm2.224575 -2.450025h1.06545V11.47H14.62125v1.298025c0 0.140625 0.0108 0.2578 0.03245 0.35155 0.021625 0.09015 0.054075 0.162275 0.09735 0.21635 0.043275 0.050475 0.09735 0.086525 0.16225 0.108175 0.0649 0.021625 0.140625 0.03245 0.22715 0.03245 0.15145 0 0.272225 -0.016225 0.362375 -0.048675l0.1947 -0.075725 0.09735 0.41645c-0.050475 0.02525 -0.1388 0.0559 -0.265 0.09195 -0.1262 0.03965 -0.270425 0.059475 -0.432675 0.059475 -0.1911 0 -0.34975 -0.023425 -0.47595 -0.0703 -0.1226 -0.050475 -0.22175 -0.1244 -0.297475 -0.22175 -0.075725 -0.09735 -0.1298 -0.216325 -0.16225 -0.35695 -0.02885 -0.144225 -0.043275 -0.3101 -0.043275 -0.497575V10.2639l0.503 -0.086525v0.870775Zm4.2421 2.8124c-0.0613 -0.16225 -0.119 -0.3209 -0.173075 -0.47595 -0.0541 -0.15865 -0.109975 -0.3191 -0.167675 -0.48135h-1.69825l-0.340725 0.9573h-0.546275l0.121425 -0.33245c0.069525 -0.189575 0.136825 -0.37145 0.20185 -0.545675l0.15765 -0.421c0.0998 -0.265375 0.1973 -0.5192 0.2925 -0.7615 0.108975 -0.269225 0.216525 -0.52705 0.322625 -0.773475l0.03975 -0.0919c0.118975 -0.277625 0.243375 -0.55165 0.373175 -0.822075h0.48135c0.108175 0.22535 0.212575 0.4532 0.31325 0.683575l0.059925 0.1385c0.119 0.27405 0.237975 0.5625 0.356975 0.865375 0.110325 0.272575 0.222125 0.559775 0.335375 0.86155l0.120175 0.32095c0.1022 0.273775 0.20995 0.5665 0.323275 0.878125h-0.5733Zm-0.492175 -1.389975c-0.115375 -0.3137 -0.230775 -0.616575 -0.34615 -0.908625 -0.111775 -0.295675 -0.22895 -0.5787 -0.35155 -0.849125 -0.1262 0.270425 -0.246975 0.55345 -0.362375 0.849125 -0.111775 0.29205 -0.22355 0.594925 -0.335325 0.908625h1.3954Zm2.5642 -2.39595c0.512575 0 0.908925 0.0957 1.18905 0.287125l0.02245 0.01575c0.28485 0.1983 0.427275 0.495775 0.427275 0.892375 0 0.21635 -0.039675 0.40205 -0.119 0.557075 -0.0757 0.15145 -0.187475 0.27585 -0.335325 0.3732 -0.144225 0.09375 -0.3209 0.16225 -0.530025 0.205525 -0.209125 0.04325 -0.4453 0.0649 -0.7085 0.0649h-0.41645v1.389975h-0.524625v-3.694c0.147825 -0.03605 0.311875 -0.059475 0.492175 -0.0703 0.1655 -0.012975 0.31785 -0.020125 0.45705 -0.021425l0.045925 -0.0002Zm0.043275 0.4597 -0.101975 0.000425c-0.17435 0.001425 -0.311625 0.0067 -0.411825 0.0158v1.471125h0.3948c0.1803 0 0.34255 -0.010825 0.486775 -0.03245 0.144225 -0.02525 0.265 -0.064925 0.362375 -0.119 0.10095 -0.0577 0.178475 -0.1352 0.23255 -0.23255 0.054075 -0.097375 0.081125 -0.22175 0.081125 -0.3732 0 -0.1352 -0.02535 -0.248225 -0.07605 -0.339075l-0.010475 -0.017875c-0.0541 -0.09375 -0.1298 -0.167675 -0.22715 -0.22175 -0.09375 -0.0577 -0.203725 -0.09735 -0.329925 -0.119 -0.1262 -0.021625 -0.2596 -0.03245 -0.400225 -0.03245Zm2.2468 -0.42185h0.5246v3.748075h-0.5246V10.112475Z" stroke-width="0.25"></path>
</svg>